# Tiled2Unity generated file. Do not modify by hand.
# Wavefront file for 'tilemap_mesh_0003.obj'

# Vertices (Count = 360)
v -256 -224 0
v -272 -224 0
v -272 -208 0
v -256 -208 0
v -240 -224 0
v -256 -224 0
v -256 -208 0
v -240 -208 0
v -224 -224 0
v -240 -224 0
v -240 -208 0
v -224 -208 0
v -208 -224 0
v -224 -224 0
v -224 -208 0
v -208 -208 0
v -192 -224 0
v -208 -224 0
v -208 -208 0
v -192 -208 0
v -176 -224 0
v -192 -224 0
v -192 -208 0
v -176 -208 0
v -256 -240 0
v -272 -240 0
v -272 -224 0
v -256 -224 0
v -240 -240 0
v -256 -240 0
v -256 -224 0
v -240 -224 0
v -224 -240 0
v -240 -240 0
v -240 -224 0
v -224 -224 0
v -208 -240 0
v -224 -240 0
v -224 -224 0
v -208 -224 0
v -192 -240 0
v -208 -240 0
v -208 -224 0
v -192 -224 0
v -176 -240 0
v -192 -240 0
v -192 -224 0
v -176 -224 0
v -256 -256 0
v -272 -256 0
v -272 -240 0
v -256 -240 0
v -240 -256 0
v -256 -256 0
v -256 -240 0
v -240 -240 0
v -224 -256 0
v -240 -256 0
v -240 -240 0
v -224 -240 0
v -208 -256 0
v -224 -256 0
v -224 -240 0
v -208 -240 0
v -192 -256 0
v -208 -256 0
v -208 -240 0
v -192 -240 0
v -176 -256 0
v -192 -256 0
v -192 -240 0
v -176 -240 0
v -272 -272 0
v -288 -272 0
v -288 -256 0
v -272 -256 0
v -256 -272 0
v -272 -272 0
v -272 -256 0
v -256 -256 0
v -240 -272 0
v -256 -272 0
v -256 -256 0
v -240 -256 0
v -224 -272 0
v -240 -272 0
v -240 -256 0
v -224 -256 0
v -272 -288 0
v -288 -288 0
v -288 -272 0
v -272 -272 0
v -256 -288 0
v -272 -288 0
v -272 -272 0
v -256 -272 0
v -240 -288 0
v -256 -288 0
v -256 -272 0
v -240 -272 0
v -224 -288 0
v -240 -288 0
v -240 -272 0
v -224 -272 0
v -272 -304 0
v -288 -304 0
v -288 -288 0
v -272 -288 0
v -256 -304 0
v -272 -304 0
v -272 -288 0
v -256 -288 0
v -240 -304 0
v -256 -304 0
v -256 -288 0
v -240 -288 0
v -224 -304 0
v -240 -304 0
v -240 -288 0
v -224 -288 0
v -384 -320 0
v -400 -320 0
v -400 -304 0
v -384 -304 0
v -368 -320 0
v -384 -320 0
v -384 -304 0
v -368 -304 0
v -352 -320 0
v -368 -320 0
v -368 -304 0
v -352 -304 0
v -336 -320 0
v -352 -320 0
v -352 -304 0
v -336 -304 0
v -320 -320 0
v -336 -320 0
v -336 -304 0
v -320 -304 0
v -304 -320 0
v -320 -320 0
v -320 -304 0
v -304 -304 0
v -288 -320 0
v -304 -320 0
v -304 -304 0
v -288 -304 0
v -272 -320 0
v -288 -320 0
v -288 -304 0
v -272 -304 0
v -256 -320 0
v -272 -320 0
v -272 -304 0
v -256 -304 0
v -240 -320 0
v -256 -320 0
v -256 -304 0
v -240 -304 0
v -528 -336 0
v -544 -336 0
v -544 -320 0
v -528 -320 0
v -512 -336 0
v -528 -336 0
v -528 -320 0
v -512 -320 0
v -496 -336 0
v -512 -336 0
v -512 -320 0
v -496 -320 0
v -480 -336 0
v -496 -336 0
v -496 -320 0
v -480 -320 0
v -464 -336 0
v -480 -336 0
v -480 -320 0
v -464 -320 0
v -448 -336 0
v -464 -336 0
v -464 -320 0
v -448 -320 0
v -432 -336 0
v -448 -336 0
v -448 -320 0
v -432 -320 0
v -416 -336 0
v -432 -336 0
v -432 -320 0
v -416 -320 0
v -400 -336 0
v -416 -336 0
v -416 -320 0
v -400 -320 0
v -384 -336 0
v -400 -336 0
v -400 -320 0
v -384 -320 0
v -368 -336 0
v -384 -336 0
v -384 -320 0
v -368 -320 0
v -352 -336 0
v -368 -336 0
v -368 -320 0
v -352 -320 0
v -336 -336 0
v -352 -336 0
v -352 -320 0
v -336 -320 0
v -320 -336 0
v -336 -336 0
v -336 -320 0
v -320 -320 0
v -304 -336 0
v -320 -336 0
v -320 -320 0
v -304 -320 0
v -288 -336 0
v -304 -336 0
v -304 -320 0
v -288 -320 0
v -272 -336 0
v -288 -336 0
v -288 -320 0
v -272 -320 0
v -256 -336 0
v -272 -336 0
v -272 -320 0
v -256 -320 0
v -240 -336 0
v -256 -336 0
v -256 -320 0
v -240 -320 0
v -528 -352 0
v -544 -352 0
v -544 -336 0
v -528 -336 0
v -512 -352 0
v -528 -352 0
v -528 -336 0
v -512 -336 0
v -496 -352 0
v -512 -352 0
v -512 -336 0
v -496 -336 0
v -480 -352 0
v -496 -352 0
v -496 -336 0
v -480 -336 0
v -464 -352 0
v -480 -352 0
v -480 -336 0
v -464 -336 0
v -448 -352 0
v -464 -352 0
v -464 -336 0
v -448 -336 0
v -432 -352 0
v -448 -352 0
v -448 -336 0
v -432 -336 0
v -416 -352 0
v -432 -352 0
v -432 -336 0
v -416 -336 0
v -400 -352 0
v -416 -352 0
v -416 -336 0
v -400 -336 0
v -384 -352 0
v -400 -352 0
v -400 -336 0
v -384 -336 0
v -368 -352 0
v -384 -352 0
v -384 -336 0
v -368 -336 0
v -352 -352 0
v -368 -352 0
v -368 -336 0
v -352 -336 0
v -336 -352 0
v -352 -352 0
v -352 -336 0
v -336 -336 0
v -320 -352 0
v -336 -352 0
v -336 -336 0
v -320 -336 0
v -304 -352 0
v -320 -352 0
v -320 -336 0
v -304 -336 0
v -288 -352 0
v -304 -352 0
v -304 -336 0
v -288 -336 0
v -272 -352 0
v -288 -352 0
v -288 -336 0
v -272 -336 0
v -256 -352 0
v -272 -352 0
v -272 -336 0
v -256 -336 0
v -240 -352 0
v -256 -352 0
v -256 -336 0
v -240 -336 0
v -528 -368 0
v -544 -368 0
v -544 -352 0
v -528 -352 0
v -512 -368 0
v -528 -368 0
v -528 -352 0
v -512 -352 0
v -496 -368 0
v -512 -368 0
v -512 -352 0
v -496 -352 0
v -480 -368 0
v -496 -368 0
v -496 -352 0
v -480 -352 0
v -464 -368 0
v -480 -368 0
v -480 -352 0
v -464 -352 0
v -448 -368 0
v -464 -368 0
v -464 -352 0
v -448 -352 0
v -432 -368 0
v -448 -368 0
v -448 -352 0
v -432 -352 0
v -416 -368 0
v -432 -368 0
v -432 -352 0
v -416 -352 0
v -400 -368 0
v -416 -368 0
v -416 -352 0
v -400 -352 0
v -384 -368 0
v -400 -368 0
v -400 -352 0
v -384 -352 0
v -368 -368 0
v -384 -368 0
v -384 -352 0
v -368 -352 0
v -352 -368 0
v -368 -368 0
v -368 -352 0
v -352 -352 0

# Texture cooridinates (Count = 64)
vt 0.1580579 0.6787072
vt 0.1745868 0.6787072
vt 0.1745868 0.7091255
vt 0.1580579 0.7091255
vt 0.1404959 0.6787072
vt 0.1570248 0.6787072
vt 0.1570248 0.7091255
vt 0.1404959 0.7091255
vt 0.1229339 0.6787072
vt 0.1394628 0.6787072
vt 0.1394628 0.7091255
vt 0.1229339 0.7091255
vt 0.1580579 0.6463878
vt 0.1745868 0.6463878
vt 0.1745868 0.6768061
vt 0.1580579 0.6768061
vt 0.1404959 0.6463878
vt 0.1570248 0.6463878
vt 0.1570248 0.6768061
vt 0.1404959 0.6768061
vt 0.1229339 0.6463878
vt 0.1394628 0.6463878
vt 0.1394628 0.6768061
vt 0.1229339 0.6768061
vt 0.1053719 0.6787072
vt 0.1219008 0.6787072
vt 0.1219008 0.7091255
vt 0.1053719 0.7091255
vt 0.1404959 0.6140684
vt 0.1570248 0.6140684
vt 0.1570248 0.6444867
vt 0.1404959 0.6444867
vt 0.1229339 0.6140684
vt 0.1394628 0.6140684
vt 0.1394628 0.6444867
vt 0.1229339 0.6444867
vt 0.08780992 0.6463878
vt 0.1043388 0.6463878
vt 0.1043388 0.6768061
vt 0.08780992 0.6768061
vt 0.1580579 0.4847909
vt 0.1745868 0.4847909
vt 0.1745868 0.5152091
vt 0.1580579 0.5152091
vt 0.1404959 0.4847909
vt 0.1570248 0.4847909
vt 0.1570248 0.5152091
vt 0.1404959 0.5152091
vt 0.1580579 0.4524715
vt 0.1745868 0.4524715
vt 0.1745868 0.4828897
vt 0.1580579 0.4828897
vt 0.1404959 0.4524715
vt 0.1570248 0.4524715
vt 0.1570248 0.4828897
vt 0.1404959 0.4828897
vt 0.1580579 0.4201521
vt 0.1745868 0.4201521
vt 0.1745868 0.4505703
vt 0.1580579 0.4505703
vt 0.1404959 0.4201521
vt 0.1570248 0.4201521
vt 0.1570248 0.4505703
vt 0.1404959 0.4505703

# Normal
vn 0 0 -1

# Mesh description
g tilemap_mesh_0003

# Faces
f 1/1/1 2/2/1 3/3/1 4/4/1
f 5/5/1 6/6/1 7/7/1 8/8/1
f 9/5/1 10/6/1 11/7/1 12/8/1
f 13/5/1 14/6/1 15/7/1 16/8/1
f 17/5/1 18/6/1 19/7/1 20/8/1
f 21/9/1 22/10/1 23/11/1 24/12/1
f 25/13/1 26/14/1 27/15/1 28/16/1
f 29/17/1 30/18/1 31/19/1 32/20/1
f 33/17/1 34/18/1 35/19/1 36/20/1
f 37/17/1 38/18/1 39/19/1 40/20/1
f 41/17/1 42/18/1 43/19/1 44/20/1
f 45/21/1 46/22/1 47/23/1 48/24/1
f 49/13/1 50/14/1 51/15/1 52/16/1
f 53/17/1 54/18/1 55/19/1 56/20/1
f 57/25/1 58/26/1 59/27/1 60/28/1
f 61/29/1 62/30/1 63/31/1 64/32/1
f 65/29/1 66/30/1 67/31/1 68/32/1
f 69/33/1 70/34/1 71/35/1 72/36/1
f 73/1/1 74/2/1 75/3/1 76/4/1
f 77/37/1 78/38/1 79/39/1 80/40/1
f 81/17/1 82/18/1 83/19/1 84/20/1
f 85/21/1 86/22/1 87/23/1 88/24/1
f 89/13/1 90/14/1 91/15/1 92/16/1
f 93/17/1 94/18/1 95/19/1 96/20/1
f 97/17/1 98/18/1 99/19/1 100/20/1
f 101/21/1 102/22/1 103/23/1 104/24/1
f 105/13/1 106/14/1 107/15/1 108/16/1
f 109/17/1 110/18/1 111/19/1 112/20/1
f 113/25/1 114/26/1 115/27/1 116/28/1
f 117/33/1 118/34/1 119/35/1 120/36/1
f 121/1/1 122/2/1 123/3/1 124/4/1
f 125/5/1 126/6/1 127/7/1 128/8/1
f 129/5/1 130/6/1 131/7/1 132/8/1
f 133/5/1 134/6/1 135/7/1 136/8/1
f 137/5/1 138/6/1 139/7/1 140/8/1
f 141/5/1 142/6/1 143/7/1 144/8/1
f 145/5/1 146/6/1 147/7/1 148/8/1
f 149/37/1 150/38/1 151/39/1 152/40/1
f 153/17/1 154/18/1 155/19/1 156/20/1
f 157/21/1 158/22/1 159/23/1 160/24/1
f 161/41/1 162/42/1 163/43/1 164/44/1
f 165/45/1 166/46/1 167/47/1 168/48/1
f 169/45/1 170/46/1 171/47/1 172/48/1
f 173/45/1 174/46/1 175/47/1 176/48/1
f 177/5/1 178/6/1 179/7/1 180/8/1
f 181/5/1 182/6/1 183/7/1 184/8/1
f 185/5/1 186/6/1 187/7/1 188/8/1
f 189/5/1 190/6/1 191/7/1 192/8/1
f 193/5/1 194/6/1 195/7/1 196/8/1
f 197/37/1 198/38/1 199/39/1 200/40/1
f 201/17/1 202/18/1 203/19/1 204/20/1
f 205/17/1 206/18/1 207/19/1 208/20/1
f 209/17/1 210/18/1 211/19/1 212/20/1
f 213/17/1 214/18/1 215/19/1 216/20/1
f 217/17/1 218/18/1 219/19/1 220/20/1
f 221/17/1 222/18/1 223/19/1 224/20/1
f 225/17/1 226/18/1 227/19/1 228/20/1
f 229/17/1 230/18/1 231/19/1 232/20/1
f 233/21/1 234/22/1 235/23/1 236/24/1
f 237/49/1 238/50/1 239/51/1 240/52/1
f 241/53/1 242/54/1 243/55/1 244/56/1
f 245/53/1 246/54/1 247/55/1 248/56/1
f 249/53/1 250/54/1 251/55/1 252/56/1
f 253/17/1 254/18/1 255/19/1 256/20/1
f 257/17/1 258/18/1 259/19/1 260/20/1
f 261/17/1 262/18/1 263/19/1 264/20/1
f 265/17/1 266/18/1 267/19/1 268/20/1
f 269/17/1 270/18/1 271/19/1 272/20/1
f 273/17/1 274/18/1 275/19/1 276/20/1
f 277/17/1 278/18/1 279/19/1 280/20/1
f 281/25/1 282/26/1 283/27/1 284/28/1
f 285/29/1 286/30/1 287/31/1 288/32/1
f 289/29/1 290/30/1 291/31/1 292/32/1
f 293/29/1 294/30/1 295/31/1 296/32/1
f 297/29/1 298/30/1 299/31/1 300/32/1
f 301/29/1 302/30/1 303/31/1 304/32/1
f 305/29/1 306/30/1 307/31/1 308/32/1
f 309/33/1 310/34/1 311/35/1 312/36/1
f 313/57/1 314/58/1 315/59/1 316/60/1
f 317/61/1 318/62/1 319/63/1 320/64/1
f 321/61/1 322/62/1 323/63/1 324/64/1
f 325/61/1 326/62/1 327/63/1 328/64/1
f 329/29/1 330/30/1 331/31/1 332/32/1
f 333/29/1 334/30/1 335/31/1 336/32/1
f 337/29/1 338/30/1 339/31/1 340/32/1
f 341/29/1 342/30/1 343/31/1 344/32/1
f 345/29/1 346/30/1 347/31/1 348/32/1
f 349/29/1 350/30/1 351/31/1 352/32/1
f 353/29/1 354/30/1 355/31/1 356/32/1
f 357/33/1 358/34/1 359/35/1 360/36/1

